<?xml version="1.0" encoding="UTF-8"?> <svg xmlns="http://www.w3.org/2000/svg" fill="none" viewBox="0 0 112 97"><path fill="#fff" fill-rule="evenodd" d="M101.6 48.7a45.8 45.8 0 1 1-91.6 0 45.8 45.8 0 0 1 91.6 0Z" clip-rule="evenodd"></path><path stroke="#242E3D" stroke-width="4" d="M98.5 66A46.2 46.2 0 0 1 9.6 48.4M12 33.7a46.2 46.2 0 0 1 89.7 19.4"></path><mask id="a" width="62" height="61" x="25" y="18" maskUnits="userSpaceOnUse" style="mask-type:alpha"><path fill="#fff" fill-rule="evenodd" d="M25.5 48.3a30.3 30.3 0 1 0 60.6 0 30.3 30.3 0 0 0-60.6 0Z" clip-rule="evenodd"></path></mask><g mask="url(#a)"><path fill="url(#b)" fill-rule="evenodd" d="M25.5 48.3a30.3 30.3 0 1 0 60.6 0 30.3 30.3 0 0 0-60.6 0Z" clip-rule="evenodd"></path></g><path stroke="#242E3D" stroke-dasharray="6 6" stroke-width="4" d="M86 48.3a30.3 30.3 0 1 1-60.5 0 30.3 30.3 0 0 1 60.6 0Z" clip-rule="evenodd"></path><path stroke="#242E3D" stroke-width="4" d="M55.8 38.1v10.2L68.5 61M2 54.1l7.7-7.7 7.6 7.5m92.3-7.5L102 54l-7.5-7.5"></path><defs><linearGradient id="b" x1="25.5" x2="86.1" y1="78.6" y2="78.6" gradientUnits="userSpaceOnUse"><stop stop-color="#FFD314"></stop><stop offset="1" stop-color="#E98304"></stop></linearGradient></defs></svg> 