<?xml version="1.0" encoding="UTF-8"?> <svg xmlns="http://www.w3.org/2000/svg" fill="none" viewBox="0 0 120 94"><mask id="a" width="48" height="47" x="40" y="23" maskUnits="userSpaceOnUse" style="mask-type:alpha"><path fill="#fff" fill-rule="evenodd" d="M40.9 46.5a23.4 23.4 0 1 0 46.8 0 23.4 23.4 0 0 0-46.8 0Z" clip-rule="evenodd"></path></mask><g mask="url(#a)"><path fill="url(#b)" fill-rule="evenodd" d="M40.9 46.5a23.4 23.4 0 1 0 46.8 0 23.4 23.4 0 0 0-46.8 0Z" clip-rule="evenodd"></path></g><path fill="#fff" fill-rule="evenodd" d="m88.4 1.5 29.3 27-19 19.1-24.8-22.4-18 1L43 36.7 36 30l15.5-15.5 25.3-3 11.6-10Z" clip-rule="evenodd"></path><path stroke="#242E3D" stroke-width="4" d="M48.2 16 35.9 3.9M10.8 30l59.9 59.8a5.6 5.6 0 0 0 7.9 0l.7-.7a5.6 5.6 0 0 0 0-8l-19.1-19 22.6 22.6a5.6 5.6 0 0 0 8 0v-.1a5.6 5.6 0 0 0 0-8l-22-22 26 26a5.6 5.6 0 0 0 8 0l1.7-1.7a5.6 5.6 0 0 0 0-7.9L78.8 45.3l21.8 21.8a5.6 5.6 0 0 0 7.8.1l.2-.2a5.6 5.6 0 0 0 0-8L76.4 26.6A5.6 5.6 0 0 0 72 25l-16 1c-1.3.1-2.6.7-3.5 1.6l-5.8 5.8a5.6 5.6 0 1 1-8-8l9.6-9.4c.9-1 2-1.5 3.3-1.6l25.3-3c1.2-.2 2.4-.8 3.3-1.7l8.3-8.3m29.2 27.1-19 19.1"></path><path fill="#fff" fill-rule="evenodd" d="m43 51.6-9.2 9.2a5.7 5.7 0 0 1-8-8l9.3-9.2a5.7 5.7 0 1 1 8 8Z" clip-rule="evenodd"></path><path stroke="#242E3D" stroke-width="4" d="m43 51.6-9.2 9.2a5.7 5.7 0 0 1-8-8l9.3-9.2a5.7 5.7 0 1 1 8 8Z" clip-rule="evenodd"></path><path fill="#fff" fill-rule="evenodd" d="m69.3 79-8 8.1A6.5 6.5 0 1 1 52 78l8-8a6.5 6.5 0 0 1 9.2 9Z" clip-rule="evenodd"></path><path stroke="#242E3D" stroke-width="4" d="m69.3 79-8 8.1A6.5 6.5 0 0 1 52 78l8-8a6.5 6.5 0 1 1 9.2 9.2Z" clip-rule="evenodd"></path><path fill="#fff" fill-rule="evenodd" d="M60.9 69.4 48.5 81.8a5.7 5.7 0 0 1-8-8l12.4-12.4a5.7 5.7 0 0 1 8 8Z" clip-rule="evenodd"></path><path stroke="#242E3D" stroke-width="4" d="M60.9 69.4 48.5 81.8a5.6 5.6 0 1 1-8-8l12.4-12.4a5.7 5.7 0 0 1 8 8Z" clip-rule="evenodd"></path><path fill="#fff" fill-rule="evenodd" d="M52 62 41.1 72.6a6.7 6.7 0 0 1-9.5-9.5l10.8-10.7a6.7 6.7 0 1 1 9.4 9.4Z" clip-rule="evenodd"></path><path stroke="#242E3D" stroke-width="4" d="M52 62 41.1 72.6a6.7 6.7 0 1 1-9.5-9.5l10.8-10.7A6.7 6.7 0 0 1 52 62Z" clip-rule="evenodd"></path><path stroke="#242E3D" stroke-dasharray="7 6" stroke-width="4" d="m1.8 41 10.8 10.8v18.5l17.2 17.1"></path><defs><linearGradient id="b" x1="40.9" x2="87.7" y1="69.9" y2="69.9" gradientUnits="userSpaceOnUse"><stop stop-color="#FFD314"></stop><stop offset="1" stop-color="#E98304"></stop></linearGradient></defs></svg> 