<?xml version="1.0" encoding="UTF-8"?> <svg xmlns="http://www.w3.org/2000/svg" fill="none" viewBox="0 0 90 91"><path fill="#fff" fill-rule="evenodd" d="M88 45.6a43 43 0 1 1-86 0 43 43 0 0 1 86 0Z" clip-rule="evenodd"></path><path stroke="#242E3D" stroke-dasharray="7 6" stroke-width="4" d="M88 45.6a43 43 0 1 1-86 0 43 43 0 0 1 86 0Z" clip-rule="evenodd"></path><mask id="a" width="52" height="53" x="19" y="19" maskUnits="userSpaceOnUse" style="mask-type:alpha"><path fill="#fff" fill-rule="evenodd" d="M19.3 45.6a25.7 25.7 0 1 0 51.4 0 25.7 25.7 0 0 0-51.4 0Z" clip-rule="evenodd"></path></mask><g mask="url(#a)"><path fill="url(#b)" fill-rule="evenodd" d="M19.3 45.6a25.7 25.7 0 1 0 51.4 0 25.7 25.7 0 0 0-51.4 0Z" clip-rule="evenodd"></path></g><path stroke="#242E3D" stroke-width="4" d="m29.5 48.5 7.8 7.8 21-21"></path><defs><linearGradient id="b" x1="19.3" x2="70.7" y1="71.3" y2="71.3" gradientUnits="userSpaceOnUse"><stop stop-color="#FFD314"></stop><stop offset="1" stop-color="#E98304"></stop></linearGradient></defs></svg> 