<?xml version="1.0" encoding="UTF-8" standalone="no"?> <svg xmlns:inkscape="http://www.inkscape.org/namespaces/inkscape" xmlns:sodipodi="http://sodipodi.sourceforge.net/DTD/sodipodi-0.dtd" xmlns:xlink="http://www.w3.org/1999/xlink" xmlns="http://www.w3.org/2000/svg" xmlns:svg="http://www.w3.org/2000/svg" width="2355" height="2355" viewBox="0 0 2355 2355" fill="none" version="1.1" id="svg25303" sodipodi:docname="2023_Summits_Logo_OfficialEvent_black_2.svg" inkscape:version="1.2.2 (b0a8486541, 2022-12-01)"><defs id="defs25307"><linearGradient inkscape:collect="always" id="linearGradient26240"><stop style="stop-color:#f1ca13;stop-opacity:1;" offset="0" id="stop26236"></stop><stop style="stop-color:#ec8705;stop-opacity:1;" offset="1" id="stop26238"></stop></linearGradient><linearGradient inkscape:collect="always" xlink:href="#linearGradient26240" id="linearGradient26242" x1="48.072083" y1="2303.6711" x2="2335.9529" y2="75.929192" gradientUnits="userSpaceOnUse"></linearGradient></defs><rect style="fill:url(#linearGradient26242);stroke-width:1.33333;-inkscape-stroke:none;stop-color:#000000;fill-opacity:1;opacity:1" id="rect25655" width="2362.7461" height="2378.9517" x="-0.9601441" y="-5.2159181"></rect><g id="g25431" transform="matrix(0.91838677,0,0,0.91838677,95.784554,949.01226)"><path d="m 926.46,396.38 c -9.427,0 -17.547,-2.007 -24.36,-6.02 -6.813,-4.107 -12.04,-9.94 -15.68,-17.5 -3.64,-7.56 -5.46,-16.66 -5.46,-27.3 0,-10.64 1.82,-19.74 5.46,-27.3 3.64,-7.56 8.867,-13.347 15.68,-17.36 6.813,-4.013 14.933,-6.02 24.36,-6.02 9.427,0 17.5,2.007 24.22,6.02 6.813,4.013 12.04,9.8 15.68,17.36 3.64,7.56 5.46,16.66 5.46,27.3 0,10.64 -1.82,19.74 -5.46,27.3 -3.64,7.56 -8.867,13.393 -15.68,17.5 -6.72,4.013 -14.793,6.02 -24.22,6.02 z m 0,-12.04 c 9.987,0 17.593,-3.267 22.82,-9.8 5.227,-6.627 7.84,-16.287 7.84,-28.98 0,-12.693 -2.613,-22.307 -7.84,-28.84 -5.227,-6.533 -12.833,-9.8 -22.82,-9.8 -9.987,0 -17.64,3.267 -22.96,9.8 -5.227,6.533 -7.84,16.147 -7.84,28.84 0,12.693 2.613,22.353 7.84,28.98 5.32,6.533 12.973,9.8 22.96,9.8 z m 111.21,9.66 h -8.68 c -1.87,0 -2.8,-0.933 -2.8,-2.8 v -91.42 c 0,-1.867 0.93,-2.8 2.8,-2.8 h 51.94 c 1.86,0 2.8,0.933 2.8,2.8 v 5.88 c 0,1.867 -0.94,2.8 -2.8,2.8 h -40.46 v 31.22 h 32.9 c 1.86,0 2.8,0.933 2.8,2.8 v 5.88 c 0,1.867 -0.94,2.8 -2.8,2.8 h -32.9 v 40.04 c 0,1.867 -0.94,2.8 -2.8,2.8 z m 107.02,0 h -8.68 c -1.87,0 -2.8,-0.933 -2.8,-2.8 v -91.42 c 0,-1.867 0.93,-2.8 2.8,-2.8 h 51.94 c 1.86,0 2.8,0.933 2.8,2.8 v 5.88 c 0,1.867 -0.94,2.8 -2.8,2.8 h -40.46 v 31.22 h 32.9 c 1.86,0 2.8,0.933 2.8,2.8 v 5.88 c 0,1.867 -0.94,2.8 -2.8,2.8 h -32.9 v 40.04 c 0,1.867 -0.94,2.8 -2.8,2.8 z m 107.57,0 h -8.68 c -1.86,0 -2.8,-0.933 -2.8,-2.8 v -91.42 c 0,-1.867 0.94,-2.8 2.8,-2.8 h 8.68 c 1.87,0 2.8,0.933 2.8,2.8 v 91.42 c 0,1.867 -0.93,2.8 -2.8,2.8 z m 104.35,1.68 c -15.31,0 -26.93,-4.2 -34.86,-12.6 -7.84,-8.493 -11.76,-20.907 -11.76,-37.24 0,-16.147 4.11,-28.56 12.32,-37.24 8.21,-8.68 19.88,-13.02 35,-13.02 3.27,0 6.63,0.28 10.08,0.84 3.45,0.467 6.63,1.12 9.52,1.96 1.12,0.373 1.87,0.887 2.24,1.54 0.37,0.56 0.56,1.447 0.56,2.66 v 5.32 c 0,1.773 -0.65,2.66 -1.96,2.66 -0.37,0 -0.84,-0.047 -1.4,-0.14 -0.56,-0.093 -1.68,-0.327 -3.36,-0.7 -2.52,-0.56 -4.9,-0.98 -7.14,-1.26 -2.15,-0.28 -4.43,-0.42 -6.86,-0.42 -11.76,0 -20.35,2.893 -25.76,8.68 -5.41,5.693 -8.12,14.793 -8.12,27.3 v 3.36 c 0,12.32 2.61,21.373 7.84,27.16 5.32,5.787 13.72,8.68 25.2,8.68 2.71,0 5.37,-0.187 7.98,-0.56 2.71,-0.467 5.6,-1.027 8.68,-1.68 1.4,-0.28 2.33,-0.467 2.8,-0.56 0.56,-0.093 1.03,-0.14 1.4,-0.14 1.4,0 2.1,0.887 2.1,2.66 v 5.18 c 0,1.213 -0.19,2.147 -0.56,2.8 -0.37,0.56 -1.12,1.027 -2.24,1.4 -6.72,2.24 -13.95,3.36 -21.7,3.36 z m 86.86,-1.68 h -8.68 c -1.87,0 -2.8,-0.933 -2.8,-2.8 v -91.42 c 0,-1.867 0.93,-2.8 2.8,-2.8 h 8.68 c 1.86,0 2.8,0.933 2.8,2.8 v 91.42 c 0,1.867 -0.94,2.8 -2.8,2.8 z m 53.38,0 c -1.58,0 -2.38,-0.607 -2.38,-1.82 0,-0.467 0.1,-0.98 0.28,-1.54 0.19,-0.56 0.38,-1.12 0.56,-1.68 l 32.76,-88.2 c 0.47,-1.4 0.98,-2.38 1.54,-2.94 0.56,-0.56 1.64,-0.84 3.22,-0.84 h 8.68 c 1.59,0 2.66,0.28 3.22,0.84 0.56,0.56 1.08,1.54 1.54,2.94 l 32.76,88.2 c 0.19,0.56 0.38,1.12 0.56,1.68 0.19,0.56 0.28,1.073 0.28,1.54 0,1.213 -0.79,1.82 -2.38,1.82 h -7.98 c -1.58,0 -2.66,-0.28 -3.22,-0.84 -0.56,-0.56 -1.07,-1.54 -1.54,-2.94 l -7.7,-21.98 h -40.18 l -7.42,21.98 c -0.46,1.4 -0.98,2.38 -1.54,2.94 -0.56,0.56 -1.63,0.84 -3.22,0.84 z m 23.8,-36.54 h 32.76 l -16.52,-47.6 z M 1684.68,394 h -54.46 c -1.87,0 -2.8,-0.933 -2.8,-2.8 v -91.42 c 0,-1.867 0.93,-2.8 2.8,-2.8 h 8.68 c 1.86,0 2.8,0.933 2.8,2.8 v 82.46 h 42.98 c 1.86,0 2.8,0.933 2.8,2.8 v 6.16 c 0,1.867 -0.94,2.8 -2.8,2.8 z m 177.54,0 h -54.74 c -1.87,0 -2.8,-0.933 -2.8,-2.8 v -91.42 c 0,-1.867 0.93,-2.8 2.8,-2.8 h 54.74 c 1.86,0 2.8,0.933 2.8,2.8 v 5.88 c 0,1.867 -0.94,2.8 -2.8,2.8 h -43.26 v 29.82 h 35.84 c 1.86,0 2.8,0.933 2.8,2.8 v 5.88 c 0,1.867 -0.94,2.8 -2.8,2.8 h -35.84 v 32.76 h 43.26 c 1.86,0 2.8,0.933 2.8,2.8 v 5.88 c 0,1.867 -0.94,2.8 -2.8,2.8 z m 91.91,0 h -8.68 c -1.49,0 -2.52,-0.233 -3.08,-0.7 -0.56,-0.467 -1.12,-1.493 -1.68,-3.08 l -32.48,-88.2 c -0.37,-1.027 -0.6,-1.727 -0.7,-2.1 -0.09,-0.373 -0.14,-0.747 -0.14,-1.12 0,-1.213 0.75,-1.82 2.24,-1.82 h 9.1 c 1.5,0 2.48,0.233 2.94,0.7 0.56,0.373 1.12,1.4 1.68,3.08 l 26.74,78.96 26.74,-78.96 c 0.56,-1.68 1.08,-2.707 1.54,-3.08 0.56,-0.467 1.59,-0.7 3.08,-0.7 h 8.54 c 1.5,0 2.24,0.607 2.24,1.82 0,0.373 -0.04,0.747 -0.14,1.12 -0.09,0.373 -0.32,1.073 -0.7,2.1 l -32.48,88.2 c -0.56,1.587 -1.12,2.613 -1.68,3.08 -0.56,0.467 -1.58,0.7 -3.08,0.7 z m 143.31,0 h -54.74 c -1.86,0 -2.8,-0.933 -2.8,-2.8 v -91.42 c 0,-1.867 0.94,-2.8 2.8,-2.8 h 54.74 c 1.87,0 2.8,0.933 2.8,2.8 v 5.88 c 0,1.867 -0.93,2.8 -2.8,2.8 h -43.26 v 29.82 h 35.84 c 1.87,0 2.8,0.933 2.8,2.8 v 5.88 c 0,1.867 -0.93,2.8 -2.8,2.8 h -35.84 v 32.76 h 43.26 c 1.87,0 2.8,0.933 2.8,2.8 v 5.88 c 0,1.867 -0.93,2.8 -2.8,2.8 z m 64.9,0 h -7.56 c -1.87,0 -2.8,-0.933 -2.8,-2.8 v -91.42 c 0,-1.867 0.93,-2.8 2.8,-2.8 h 8.96 c 2.61,0 4.39,0.84 5.32,2.52 l 46.2,75.04 v -74.76 c 0,-1.867 0.93,-2.8 2.8,-2.8 h 7.56 c 1.87,0 2.8,0.933 2.8,2.8 v 91.42 c 0,1.867 -0.93,2.8 -2.8,2.8 h -9.1 c -2.52,0 -4.29,-0.84 -5.32,-2.52 l -46.06,-74.62 v 74.34 c 0,1.867 -0.93,2.8 -2.8,2.8 z m 155.94,0 h -8.68 c -1.87,0 -2.8,-0.933 -2.8,-2.8 v -82.46 h -28.14 c -1.87,0 -2.8,-0.933 -2.8,-2.8 v -6.16 c 0,-1.867 0.93,-2.8 2.8,-2.8 h 70.56 c 1.87,0 2.8,0.933 2.8,2.8 v 6.16 c 0,1.867 -0.93,2.8 -2.8,2.8 h -28.14 v 82.46 c 0,1.867 -0.93,2.8 -2.8,2.8 z" fill="#000000" id="path25293"></path><path d="m 924.8,193.4 c -6.4,0 -12.867,-0.533 -19.4,-1.6 -6.4,-1.067 -12.267,-2.533 -17.6,-4.4 -1.733,-0.667 -2.933,-1.467 -3.6,-2.4 -0.667,-0.933 -1,-2.467 -1,-4.6 v -12.2 c 0,-3.067 1.067,-4.6 3.2,-4.6 0.4,0 0.933,0.067 1.6,0.2 0.667,0.133 1.4,0.333 2.2,0.6 12.933,3.333 24.6,5 35,5 7.867,0 13.933,-1.4 18.2,-4.2 4.267,-2.933 6.4,-7.067 6.4,-12.4 0,-4.267 -1.333,-7.533 -4,-9.8 -2.533,-2.4 -7.733,-5.067 -15.6,-8 L 915,129.4 c -11.733,-4.267 -20.267,-9.533 -25.6,-15.8 -5.2,-6.4 -7.8,-14.5333 -7.8,-24.4 0,-8.4 2.067,-15.6667 6.2,-21.8 4.267,-6.2667 10.2,-11.0667 17.8,-14.4 7.733,-3.3333 16.8,-5 27.2,-5 11.2,0 22.467,1.8667 33.8,5.6 1.867,0.5333 3.067,1.3333 3.6,2.4 0.667,0.9333 1,2.4667 1,4.6 v 12 c 0,3.0667 -1.067,4.6 -3.2,4.6 -0.667,0 -2.067,-0.2667 -4.2,-0.8 -4.533,-1.3333 -9.467,-2.4 -14.8,-3.2 -5.333,-0.8 -9.933,-1.2 -13.8,-1.2 -15.733,0 -23.6,5.0667 -23.6,15.2 0,3.7333 1.333,6.8 4,9.2 2.8,2.4 7.933,4.933 15.4,7.6 l 14.8,5.4 c 12.4,4.533 21.2,9.867 26.4,16 5.333,6 8,13.867 8,23.6 0,13.733 -4.933,24.6 -14.8,32.6 -9.867,7.867 -23.4,11.8 -40.6,11.8 z m 188.64,0 c -18.27,0 -32.4,-4.733 -42.4,-14.2 -9.87,-9.467 -14.8,-22.867 -14.8,-40.2 V 56.4 c 0,-3.3333 1.67,-5 5,-5 h 20 c 3.33,0 5,1.6667 5,5 v 84 c 0,9.333 2.33,16.467 7,21.4 4.67,4.8 11.4,7.2 20.2,7.2 8.8,0 15.53,-2.4 20.2,-7.2 4.67,-4.933 7,-12.067 7,-21.4 v -84 c 0,-3.3333 1.67,-5 5,-5 h 20 c 3.33,0 5,1.6667 5,5 v 82.8 c 0,17.333 -5,30.733 -15,40.2 -9.87,9.333 -23.93,14 -42.2,14 z m 163.73,-3.4 h -16.4 c -3.34,0 -5,-1.667 -5,-5 V 56.4 c 0,-3.3333 1.66,-5 5,-5 h 23.2 c 3.06,0 5.26,1.3333 6.6,4 l 35.8,74.8 36,-74.8 c 1.33,-2.6667 3.53,-4 6.6,-4 h 22.6 c 3.33,0 5,1.6667 5,5 V 185 c 0,3.333 -1.67,5 -5,5 h -16.4 c -3.34,0 -5,-1.667 -5,-5 V 94 l -28.6,58.2 c -1.34,2.667 -3.54,4 -6.6,4 h -17.6 c -3.07,0 -5.27,-1.333 -6.6,-4 L 1282.17,94 v 91 c 0,3.333 -1.67,5 -5,5 z m 226.85,0 h -16.4 c -3.34,0 -5,-1.667 -5,-5 V 56.4 c 0,-3.3333 1.66,-5 5,-5 h 23.2 c 3.06,0 5.26,1.3333 6.6,4 l 35.8,74.8 36,-74.8 c 1.33,-2.6667 3.53,-4 6.6,-4 h 22.6 c 3.33,0 5,1.6667 5,5 V 185 c 0,3.333 -1.67,5 -5,5 h -16.4 c -3.34,0 -5,-1.667 -5,-5 V 94 l -28.6,58.2 c -1.34,2.667 -3.54,4 -6.6,4 h -17.6 c -3.07,0 -5.27,-1.333 -6.6,-4 L 1509.02,94 v 91 c 0,3.333 -1.67,5 -5,5 z m 231.25,0 h -20 c -3.33,0 -5,-1.667 -5,-5 V 56.4 c 0,-3.3333 1.67,-5 5,-5 h 20 c 3.33,0 5,1.6667 5,5 V 185 c 0,3.333 -1.67,5 -5,5 z m 145.47,0 h -20 c -3.33,0 -5,-1.667 -5,-5 V 75.4 h -37.2 c -3.33,0 -5,-1.6667 -5,-5 v -14 c 0,-3.3333 1.67,-5 5,-5 h 104.4 c 3.33,0 5,1.6667 5,5 v 14 c 0,3.3333 -1.67,5 -5,5 h -37.2 V 185 c 0,3.333 -1.67,5 -5,5 z" fill="#000000" id="path25295"></path><path d="m 189.853,197.936 c 0,8.132 0.879,14.725 2.417,19.56 1.758,4.835 3.955,10.11 7.031,15.824 1.099,1.759 1.539,3.517 1.539,5.055 0,2.198 -1.319,4.396 -4.175,6.594 l -13.844,9.23 c -1.977,1.319 -3.955,1.978 -5.713,1.978 -2.197,0 -4.395,-1.098 -6.592,-3.077 -3.076,-3.296 -5.713,-6.813 -7.911,-10.329 -2.197,-3.736 -4.394,-7.912 -6.811,-12.967 -17.14,20.22 -38.674,30.329 -64.6032,30.329 -18.4579,0 -33.1802,-5.274 -43.9473,-15.824 -10.7671,-10.549 -16.2606,-24.615 -16.2606,-42.198 0,-18.681 6.5921,-33.846 19.9961,-45.274 13.4039,-11.429 31.2026,-17.143 53.836,-17.143 7.471,0 15.161,0.659 23.292,1.758 8.13,1.099 16.48,2.857 25.269,4.835 v -16.044 c 0,-16.703 -3.515,-28.351 -10.327,-35.1645 -7.032,-6.8132 -18.898,-10.1099 -35.817,-10.1099 -7.6912,0 -15.6017,0.8792 -23.7319,2.8572 -8.1303,1.978 -16.0408,4.3956 -23.7316,7.4725 -3.5158,1.5385 -6.1527,2.4176 -7.6908,2.8571 -1.5382,0.4396 -2.6369,0.6594 -3.5158,0.6594 -3.0763,0 -4.6145,-2.1978 -4.6145,-6.8132 V 81.2324 c 0,-3.5165 0.4395,-6.1539 1.5382,-7.6923 1.0987,-1.5385 3.0763,-3.077 6.1526,-4.6154 7.6908,-3.9561 16.9197,-7.2528 27.6869,-9.8901 10.7671,-2.8572 22.1929,-4.1759 34.2789,-4.1759 26.149,0 45.266,5.9341 57.571,17.8022 12.086,11.8682 18.238,29.8901 18.238,54.0661 v 71.209 z m -89.213,33.406 c 7.251,0 14.722,-1.318 22.632,-3.956 7.911,-2.637 14.943,-7.472 20.875,-14.066 3.516,-4.176 6.153,-8.791 7.472,-14.066 1.318,-5.274 2.197,-11.648 2.197,-19.121 v -9.23 c -6.372,-1.539 -13.184,-2.857 -20.216,-3.737 -7.032,-0.879 -13.843,-1.318 -20.655,-1.318 -14.7226,0 -25.4897,2.857 -32.741,8.791 -7.2513,5.934 -10.7671,14.286 -10.7671,25.275 0,10.329 2.6368,18.022 8.1303,23.296 5.2736,5.495 12.9644,8.132 23.0728,8.132 z m 176.448,23.737 c -3.955,0 -6.592,-0.66 -8.35,-2.198 -1.758,-1.319 -3.296,-4.396 -4.614,-8.572 L 212.486,74.4192 c -1.319,-4.3956 -1.978,-7.2528 -1.978,-8.7912 0,-3.5165 1.758,-5.4945 5.274,-5.4945 h 21.534 c 4.175,0 7.031,0.6593 8.57,2.1978 1.758,1.3187 3.076,4.3956 4.394,8.5714 L 287.196,216.397 321.475,70.9027 c 1.099,-4.3956 2.417,-7.2527 4.175,-8.5714 1.758,-1.3187 4.834,-2.1978 8.79,-2.1978 h 17.579 c 4.175,0 7.031,0.6593 8.789,2.1978 1.758,1.3187 3.296,4.3956 4.175,8.5714 L 399.701,218.155 437.716,70.9027 c 1.318,-4.3956 2.857,-7.2527 4.395,-8.5714 1.758,-1.3187 4.614,-2.1978 8.569,-2.1978 h 20.436 c 3.516,0 5.493,1.7582 5.493,5.4945 0,1.0989 -0.219,2.1978 -0.439,3.5165 -0.22,1.3186 -0.659,3.0769 -1.538,5.4945 l -52.957,169.89 c -1.318,4.396 -2.856,7.253 -4.614,8.571 -1.758,1.319 -4.615,2.198 -8.35,2.198 h -18.898 c -4.175,0 -7.031,-0.659 -8.789,-2.198 -1.758,-1.538 -3.296,-4.395 -4.175,-8.791 L 342.79,102.551 308.95,244.09 c -1.099,4.395 -2.417,7.252 -4.175,8.791 -1.758,1.538 -4.834,2.198 -8.789,2.198 z m 282.362,5.934 c -11.426,0 -22.852,-1.319 -33.839,-3.956 -10.987,-2.638 -19.557,-5.495 -25.27,-8.792 -3.516,-1.978 -5.933,-4.175 -6.812,-6.154 -0.879,-1.978 -1.318,-4.175 -1.318,-6.153 v -11.209 c 0,-4.616 1.758,-6.813 5.054,-6.813 1.318,0 2.637,0.219 3.955,0.659 1.318,0.44 3.296,1.319 5.493,2.198 7.471,3.297 15.602,5.934 24.171,7.692 8.79,1.758 17.36,2.637 26.149,2.637 13.844,0 24.611,-2.417 32.082,-7.252 7.471,-4.835 11.426,-11.868 11.426,-20.879 0,-6.154 -1.978,-11.209 -5.933,-15.385 -3.955,-4.176 -11.426,-7.912 -22.193,-11.429 l -31.862,-9.89 c -16.041,-5.055 -27.907,-12.527 -35.158,-22.417 -7.251,-9.671 -10.987,-20.44 -10.987,-31.868 0,-9.231 1.978,-17.363 5.933,-24.396 3.955,-7.033 9.229,-13.1868 15.821,-18.022 6.592,-5.0549 14.063,-8.7912 22.853,-11.4285 8.789,-2.6374 18.018,-3.7363 27.687,-3.7363 4.834,0 9.888,0.2198 14.722,0.8791 5.054,0.6594 9.668,1.5385 14.283,2.4176 4.395,1.0989 8.57,2.1978 12.525,3.5165 3.955,1.3187 7.031,2.6373 9.229,3.956 3.076,1.7583 5.273,3.5165 6.592,5.4945 1.318,1.7583 1.978,4.1758 1.978,7.2528 v 10.3296 c 0,4.6154 -1.758,7.033 -5.054,7.033 -1.758,0 -4.615,-0.8791 -8.35,-2.6374 -12.525,-5.7142 -26.589,-8.5714 -42.19,-8.5714 -12.525,0 -22.413,1.978 -29.225,6.1539 -6.812,4.1758 -10.328,10.5496 -10.328,19.5606 0,6.154 2.198,11.428 6.593,15.604 4.394,4.176 12.525,8.352 24.171,12.088 l 31.202,9.89 c 15.821,5.055 27.248,12.088 34.059,21.099 6.812,9.011 10.108,19.341 10.108,30.769 0,9.451 -1.977,18.022 -5.713,25.495 -3.955,7.472 -9.229,14.066 -16.041,19.341 -6.811,5.494 -14.942,9.45 -24.39,12.307 -9.889,3.077 -20.216,4.616 -31.423,4.616 z" fill="#000000" id="path25297"></path><path fill-rule="evenodd" clip-rule="evenodd" d="m 600.981,367.826 c -72.293,53.407 -177.328,81.759 -267.639,81.759 -126.569,0 -240.6122,-46.814 -326.74903,-124.616 -6.811841,-6.154 -0.65921,-14.505 7.47103,-9.67 93.168,54.066 208.091,86.813 326.968,86.813 80.204,0 168.319,-16.703 249.402,-50.989 12.085,-5.495 22.413,7.912 10.547,16.703 z" fill="#000000" id="path25299"></path><path fill-rule="evenodd" clip-rule="evenodd" d="m 631.086,333.538 c -9.229,-11.868 -61.087,-5.714 -84.599,-2.857 -7.032,0.879 -8.13,-5.275 -1.758,-9.89 41.311,-29.011 109.209,-20.659 117.12,-10.989 7.91,9.89 -2.197,77.802 -40.871,110.33 -5.933,5.055 -11.646,2.417 -9.009,-4.176 8.789,-21.758 28.346,-70.769 19.117,-82.418 z" fill="#000000" id="path25301"></path></g></svg> 