<?xml version="1.0" encoding="UTF-8"?> <svg xmlns="http://www.w3.org/2000/svg" width="97" height="93" viewBox="0 0 97 93" fill="none"><path fill-rule="evenodd" clip-rule="evenodd" d="M87.8551 47.0157C87.8551 71.1782 68.2678 90.7655 44.1053 90.7655C19.9428 90.7655 0.355469 71.1782 0.355469 47.0157C0.355469 22.8532 19.9428 3.26587 44.1053 3.26587C68.2678 3.26587 87.8551 22.8532 87.8551 47.0157Z" fill="white"></path><mask id="mask0_78_4213" style="mask-type:alpha" maskUnits="userSpaceOnUse" x="15" y="17" width="59" height="59"><path fill-rule="evenodd" clip-rule="evenodd" d="M15.1914 46.664C15.1914 62.6319 28.136 75.5765 44.1039 75.5765C60.0719 75.5765 73.0164 62.6319 73.0164 46.664C73.0164 30.696 60.0719 17.7515 44.1039 17.7515C28.136 17.7515 15.1914 30.696 15.1914 46.664Z" fill="white"></path></mask><g mask="url(#mask0_78_4213)"><path fill-rule="evenodd" clip-rule="evenodd" d="M15.1914 46.664C15.1914 62.6319 28.136 75.5765 44.1039 75.5765C60.0719 75.5765 73.0164 62.6319 73.0164 46.664C73.0164 30.696 60.0719 17.7515 44.1039 17.7515C28.136 17.7515 15.1914 30.696 15.1914 46.664Z" fill="url(#paint0_linear_78_4213)"></path></g><path fill-rule="evenodd" clip-rule="evenodd" d="M73.0155 46.664C73.0155 62.6319 60.0709 75.5765 44.103 75.5765C28.136 75.5765 15.1914 62.6319 15.1914 46.664C15.1914 30.696 28.136 17.7515 44.103 17.7515C60.0709 17.7515 73.0155 30.696 73.0155 46.664Z" stroke="#242E3D" stroke-width="4" stroke-dasharray="6 6"></path><path d="M95.4982 44.8501L88.1211 52.2272L80.9102 45.0153" stroke="#242E3D" stroke-width="4"></path><path d="M83.8208 65.8634C75.907 82.2334 58.2965 92.6292 39.2001 90.4919C14.9946 87.7827 -2.43163 65.9646 0.277606 41.7591C2.98589 17.5536 24.8049 0.127454 49.0095 2.83669C73.2149 5.54592 90.6411 27.364 87.9319 51.5695" stroke="#242E3D" stroke-width="4"></path><path fill-rule="evenodd" clip-rule="evenodd" d="M31.0107 52.0554V56.177H34.7173V52.0554H37.1515V48.7361H34.7173V36.8694H32.2001L22.9336 48.7637V52.0554H31.0107ZM31.4256 48.7361H26.6402L31.4256 42.4846V48.7361Z" fill="#242E3D"></path><path fill-rule="evenodd" clip-rule="evenodd" d="M53.6639 50.1192C53.6639 51.3363 53.3365 52.3967 52.6819 53.3003C52.0272 54.2039 51.1559 54.9092 50.0679 55.4164C48.9799 55.9235 47.7904 56.177 46.4996 56.177C45.1903 56.177 43.9962 55.9097 42.9174 55.3749C41.8386 54.8401 40.9811 54.1071 40.3449 53.1758C39.7087 52.2445 39.3906 51.1796 39.3906 49.9809C39.3906 49.2433 39.5474 48.5748 39.8609 47.9755C40.1744 47.3761 40.5662 46.8598 41.0365 46.4264C41.5067 45.9931 41.9816 45.6565 42.461 45.4168C42.0184 45.1955 41.6081 44.9005 41.2301 44.5316C40.8521 44.1628 40.5524 43.7387 40.3311 43.2592C40.1098 42.7798 39.9992 42.2726 39.9992 41.7379C39.9992 40.8711 40.1928 40.0966 40.5801 39.4143C40.9673 38.732 41.4837 38.1557 42.1291 37.6855C42.7745 37.2152 43.4799 36.8649 44.2452 36.6343C45.0105 36.4038 45.7712 36.2886 46.5272 36.2886C47.2649 36.2886 48.021 36.4038 48.7955 36.6343C49.57 36.8649 50.28 37.2106 50.9254 37.6716C51.5708 38.1327 52.0918 38.6997 52.4883 39.3728C52.8847 40.0459 53.083 40.825 53.083 41.7102C53.083 42.2265 52.9677 42.729 52.7372 43.2177C52.5067 43.7064 52.2024 44.1398 51.8244 44.5178C51.4463 44.8958 51.0176 45.1955 50.5381 45.4168C51.0729 45.6934 51.58 46.053 52.0595 46.4956C52.539 46.9382 52.9262 47.4637 53.2213 48.0723C53.5163 48.6808 53.6639 49.3631 53.6639 50.1192ZM49.9019 49.8979C49.9019 49.4185 49.8097 48.9989 49.6253 48.6393C49.4409 48.2797 49.1827 47.9755 48.8508 47.7265C48.5189 47.4776 48.15 47.2886 47.7443 47.1595C47.3386 47.0304 46.9237 46.9658 46.4996 46.9658C45.9095 46.9658 45.3609 47.0857 44.8537 47.3254C44.3466 47.5652 43.9363 47.9063 43.6228 48.3489C43.3093 48.7915 43.1526 49.3078 43.1526 49.8979C43.1526 50.3405 43.2494 50.7416 43.443 51.1012C43.6366 51.4608 43.8948 51.7697 44.2175 52.0279C44.5402 52.286 44.8998 52.4843 45.2963 52.6226C45.6928 52.7609 46.1031 52.83 46.5272 52.83C47.1173 52.83 47.6706 52.7009 48.1869 52.4428C48.7033 52.1846 49.1182 51.8342 49.4317 51.3916C49.7452 50.9491 49.9019 50.4512 49.9019 49.8979ZM44.176 43.1209C43.8994 42.7705 43.7611 42.3464 43.7611 41.8485C43.7611 41.3875 43.8856 40.9864 44.1345 40.6452C44.3835 40.3041 44.72 40.0413 45.1442 39.8569C45.5683 39.6725 46.0201 39.5803 46.4996 39.5803C47.0159 39.5803 47.4816 39.6725 47.8965 39.8569C48.3114 40.0413 48.6479 40.2995 48.9061 40.6314C49.1643 40.9633 49.2934 41.3598 49.2934 41.8208C49.2934 42.3372 49.1505 42.7659 48.8646 43.1071C48.5788 43.4482 48.2284 43.711 47.8135 43.8954C47.3986 44.0798 46.9698 44.172 46.5272 44.172C46.1031 44.172 45.6744 44.0845 45.241 43.9093C44.8076 43.7341 44.4526 43.4713 44.176 43.1209Z" fill="#242E3D"></path><path d="M65.0548 45.938V56.1771H63.0791V51.8075H58.4355V56.1771H56.4453V45.938H58.4355V50.0769H63.0791V45.938H65.0548Z" fill="#242E3D"></path><defs><linearGradient id="paint0_linear_78_4213" x1="15.1917" y1="75.5762" x2="73.0161" y2="75.5762" gradientUnits="userSpaceOnUse"><stop stop-color="#FFD314"></stop><stop offset="1" stop-color="#E98304"></stop></linearGradient></defs></svg> 