<?xml version="1.0" encoding="UTF-8"?> <svg xmlns="http://www.w3.org/2000/svg" width="90" height="96" viewBox="0 0 90 96" fill="none"><path fill-rule="evenodd" clip-rule="evenodd" d="M14.8967 15.8667C11.9389 15.8667 9.53906 18.2267 9.53906 21.1367V83.8817H78.674V21.1367C78.674 18.2267 76.2742 15.8667 73.3153 15.8667H14.8967Z" fill="url(#paint0_linear_78_4173)"></path><path fill-rule="evenodd" clip-rule="evenodd" d="M11.4883 31.1317H76.7523V15.8667H11.4883V31.1317Z" fill="white"></path><path fill-rule="evenodd" clip-rule="evenodd" d="M11.4883 31.1317H76.7523V15.8667H11.4883V31.1317Z" stroke="#242E3D" stroke-width="4"></path><path d="M29.2109 8.69824V23.0342" stroke="#242E3D" stroke-width="4"></path><path d="M59.0312 8.69824V23.0342" stroke="#242E3D" stroke-width="4"></path><path fill-rule="evenodd" clip-rule="evenodd" d="M20.6211 53.5266H30.6521V43.4956H20.6211V53.5266Z" fill="white"></path><path fill-rule="evenodd" clip-rule="evenodd" d="M20.6211 53.5266H30.6521V43.4956H20.6211V53.5266Z" stroke="#242E3D" stroke-width="4"></path><path fill-rule="evenodd" clip-rule="evenodd" d="M39.1055 53.5266H49.1365V43.4956H39.1055V53.5266Z" fill="white"></path><path fill-rule="evenodd" clip-rule="evenodd" d="M39.1055 53.5266H49.1365V43.4956H39.1055V53.5266Z" stroke="#242E3D" stroke-width="4"></path><path fill-rule="evenodd" clip-rule="evenodd" d="M57.5938 53.5266H67.6248V43.4956H57.5938V53.5266Z" fill="white"></path><path fill-rule="evenodd" clip-rule="evenodd" d="M57.5938 53.5266H67.6248V43.4956H57.5938V53.5266Z" stroke="#242E3D" stroke-width="4"></path><path fill-rule="evenodd" clip-rule="evenodd" d="M20.6211 71.6877H30.6521V61.6567H20.6211V71.6877Z" fill="white"></path><path fill-rule="evenodd" clip-rule="evenodd" d="M20.6211 71.6877H30.6521V61.6567H20.6211V71.6877Z" stroke="#242E3D" stroke-width="4"></path><path fill-rule="evenodd" clip-rule="evenodd" d="M39.1055 71.6877H49.1365V61.6567H39.1055V71.6877Z" fill="white"></path><path fill-rule="evenodd" clip-rule="evenodd" d="M39.1055 71.6877H49.1365V61.6567H39.1055V71.6877Z" stroke="#242E3D" stroke-width="4"></path><path fill-rule="evenodd" clip-rule="evenodd" d="M57.5938 71.6877H67.6248V61.6567H57.5938V71.6877Z" fill="white"></path><path fill-rule="evenodd" clip-rule="evenodd" d="M57.5938 71.6877H67.6248V61.6567H57.5938V71.6877Z" stroke="#242E3D" stroke-width="4"></path><path d="M63.7891 2.94629H87.7891V37.9463" stroke="#242E3D" stroke-width="4" stroke-dasharray="6 4"></path><path d="M1.22266 61.9097V93.9288H39.1057" stroke="#242E3D" stroke-width="4" stroke-dasharray="6 4"></path><defs><linearGradient id="paint0_linear_78_4173" x1="9.53935" y1="83.8809" x2="78.6731" y2="83.8809" gradientUnits="userSpaceOnUse"><stop stop-color="#FFD314"></stop><stop offset="1" stop-color="#E98304"></stop></linearGradient></defs></svg> 