<?xml version="1.0" encoding="UTF-8"?> <svg xmlns="http://www.w3.org/2000/svg" width="104" height="109" viewBox="0 0 104 109" fill="none"><path fill-rule="evenodd" clip-rule="evenodd" d="M80.5059 54.606V54.7022C80.5005 59.7083 79.1776 64.6342 76.6791 68.9467L71.615 66.0121C69.6237 69.4478 66.7617 72.306 63.3245 74.2934L66.2545 79.3614C61.9397 81.856 57.0123 83.1751 52.0055 83.1736C52.0055 83.1736 51.9833 79.2292 51.9833 77.3418C47.9656 77.225 44.0144 76.2182 40.6872 74.2949L37.7587 79.3614C33.4393 76.8644 29.8349 73.263 27.3334 68.9482L32.3982 66.0121C30.4635 62.6742 29.3384 58.8093 29.3384 54.6747L23.5059 54.6931V54.6449C23.5104 49.6587 24.8242 44.7504 27.3036 40.4524L32.3715 43.3763C34.3559 39.9353 37.2134 37.0725 40.646 35.0782L37.7053 30.0164C42.0155 27.5126 46.9398 26.1835 51.9459 26.1736L51.9566 32.0084C51.981 32.0084 52.0039 32.0046 52.0284 32.0046C56.1301 32.0092 59.966 33.1182 63.2833 35.027L66.2011 29.9553C70.5243 32.4422 74.1371 36.036 76.6478 40.3478L71.589 43.2938C73.5268 46.621 74.6565 50.4753 74.6703 54.5999L80.5059 54.606Z" fill="white" stroke="#242E3D" stroke-width="4"></path><path fill-rule="evenodd" clip-rule="evenodd" d="M38.457 54.6736C38.457 62.1568 44.5233 68.2222 52.0057 68.2222C59.4888 68.2222 65.555 62.1568 65.555 54.6736C65.555 47.1913 59.4888 41.125 52.0057 41.125C44.5233 41.125 38.457 47.1913 38.457 54.6736Z" fill="url(#paint0_linear_78_2485)"></path><path d="M38.457 54.6736C38.457 62.1568 44.5233 68.2222 52.0057 68.2222V68.2222C59.4888 68.2222 65.555 62.1568 65.555 54.6736V54.6736C65.555 47.1913 59.4888 41.125 52.0057 41.125V41.125C44.5233 41.125 38.457 47.1913 38.457 54.6736" stroke="#242E3D" stroke-width="4"></path><path d="M35.8379 12.5063H72.3565C84.8191 12.5063 94.9225 21.3682 94.9225 32.2993V71.5063" stroke="#242E3D" stroke-width="4" stroke-dasharray="6 4"></path><path d="M68.1744 97.2336L31.6558 97.2321C19.194 97.2314 9.09155 88.3702 9.0907 77.4397L9.08984 38.2336" stroke="#242E3D" stroke-width="4" stroke-dasharray="6 4"></path><mask id="mask0_78_2485" style="mask-type:alpha" maskUnits="userSpaceOnUse" x="13" y="0" width="24" height="25"><path fill-rule="evenodd" clip-rule="evenodd" d="M24.7212 0.919189C18.3209 0.919189 13.1328 6.10645 13.1328 12.5058C13.1328 18.9061 18.3209 24.0942 24.7212 24.0942C31.1205 24.0942 36.3087 18.9061 36.3087 12.5058C36.3087 6.10645 31.1205 0.919189 24.7212 0.919189Z" fill="white"></path></mask><g mask="url(#mask0_78_2485)"><path fill-rule="evenodd" clip-rule="evenodd" d="M24.7212 0.919189C18.3209 0.919189 13.1328 6.10645 13.1328 12.5058C13.1328 18.9061 18.3209 24.0942 24.7212 24.0942C31.1205 24.0942 36.3087 18.9061 36.3087 12.5058C36.3087 6.10645 31.1205 0.919189 24.7212 0.919189Z" fill="url(#paint1_linear_78_2485)"></path></g><path fill-rule="evenodd" clip-rule="evenodd" d="M24.1091 4.43555H25.3151V6.25793C25.1208 6.24301 24.9228 6.23555 24.7211 6.23555C24.5126 6.23555 24.3086 6.24446 24.1091 6.26229V4.43555ZM24.2711 13.8808C24.081 13.8239 23.883 13.7654 23.6771 13.7055C22.8611 13.4775 22.1831 13.2225 21.6431 12.9405C21.1031 12.6585 20.7011 12.3015 20.4371 11.8695C20.1731 11.4375 20.0411 10.8975 20.0411 10.2495C20.0411 9.37355 20.2511 8.63855 20.6711 8.04455C21.0911 7.45055 21.6551 7.00055 22.3631 6.69455C22.9002 6.46241 23.4822 6.31832 24.1091 6.26229V7.58555L25.3151 7.40555V6.25793C25.6986 6.28739 26.0676 6.34593 26.4221 6.43355C26.9561 6.56555 27.4571 6.73955 27.9251 6.95555C28.3931 7.17155 28.8131 7.40555 29.1851 7.65755L28.0871 9.67355C28.0031 9.58955 27.8501 9.47555 27.6281 9.33155C27.4061 9.18755 27.1361 9.04955 26.8181 8.91755C26.5001 8.78555 26.1551 8.66855 25.7831 8.56655C25.5691 8.50787 25.3531 8.46606 25.1351 8.44114V7.62155L24.2711 7.81955V8.42822C23.7837 8.46809 23.4027 8.5892 23.1281 8.79155C22.7861 9.04355 22.6151 9.39755 22.6151 9.85355C22.6151 10.2015 22.7231 10.4775 22.9391 10.6815C23.1551 10.8855 23.4791 11.0595 23.9111 11.2035C24.0238 11.2411 24.1438 11.2795 24.2711 11.3187V13.8808ZM25.1351 14.1469C24.8679 14.0621 24.5799 13.9734 24.2711 13.8808V16.9788C24.0152 16.949 23.7602 16.9019 23.5061 16.8375C23.0321 16.7175 22.6001 16.5705 22.2101 16.3965C21.8201 16.2225 21.4871 16.0485 21.2111 15.8745C20.9351 15.7005 20.7431 15.5595 20.6351 15.4515L19.5371 17.5935C20.0291 17.9415 20.5661 18.2385 21.1481 18.4845C21.7301 18.7305 22.3421 18.9195 22.9841 19.0515C23.3601 19.1289 23.7351 19.1835 24.1091 19.2156V21.2115H25.3151V19.2392C25.7904 19.2153 26.2494 19.1497 26.6921 19.0425C27.2621 18.9045 27.7691 18.6855 28.2131 18.3855C28.6571 18.0855 29.0051 17.6925 29.2571 17.2065C29.5091 16.7205 29.6351 16.1355 29.6351 15.4515C29.6351 14.6715 29.4701 14.0445 29.1401 13.5705C28.8101 13.0965 28.3361 12.7125 27.7181 12.4185C27.1001 12.1245 26.3711 11.8755 25.5311 11.6715C25.3943 11.6361 25.2623 11.6011 25.1351 11.5667V8.44114C24.9742 8.42275 24.8122 8.41355 24.6491 8.41355C24.5167 8.41355 24.3907 8.41844 24.2711 8.42822V11.3187C24.529 11.398 24.817 11.4807 25.1351 11.5667V14.1469ZM25.1351 14.1469C25.2308 14.1773 25.3238 14.2072 25.4141 14.2365C25.9121 14.3985 26.2991 14.5875 26.5751 14.8035C26.8511 15.0195 26.9891 15.3195 26.9891 15.7035C26.9891 16.1235 26.8151 16.4475 26.4671 16.6755C26.1541 16.8806 25.7101 16.9934 25.1351 17.0141V14.1469ZM25.3151 19.2392V17.9535H24.1091V19.2156C24.3736 19.2382 24.6376 19.2495 24.9011 19.2495C25.0405 19.2495 25.1785 19.2461 25.3151 19.2392ZM25.1351 17.0141V17.7015L24.2711 17.6655V16.9788C24.4925 17.0046 24.7145 17.0175 24.9371 17.0175C25.0048 17.0175 25.0708 17.0164 25.1351 17.0141Z" fill="#242E3D"></path><mask id="mask1_78_2485" style="mask-type:alpha" maskUnits="userSpaceOnUse" x="68" y="85" width="24" height="24"><path fill-rule="evenodd" clip-rule="evenodd" d="M68.1738 97.2332C68.1738 103.633 73.3628 108.822 79.7622 108.822C86.1624 108.822 91.3505 103.633 91.3505 97.2332C91.3505 90.8339 86.1624 85.6458 79.7622 85.6458C73.3628 85.6458 68.1738 90.8339 68.1738 97.2332Z" fill="white"></path></mask><g mask="url(#mask1_78_2485)"><path fill-rule="evenodd" clip-rule="evenodd" d="M68.1738 97.2332C68.1738 103.633 73.3628 108.822 79.7622 108.822C86.1624 108.822 91.3505 103.633 91.3505 97.2332C91.3505 90.8339 86.1624 85.6458 79.7622 85.6458C73.3628 85.6458 68.1738 90.8339 68.1738 97.2332Z" fill="url(#paint2_linear_78_2485)"></path></g><path fill-rule="evenodd" clip-rule="evenodd" d="M79.2283 89.3667H80.4342V91.1891C80.24 91.1742 80.042 91.1667 79.8403 91.1667C79.6317 91.1667 79.4277 91.1756 79.2283 91.1934V89.3667ZM79.3902 98.812C79.2001 98.755 79.0021 98.6966 78.7962 98.6367C77.9802 98.4087 77.3022 98.1537 76.7622 97.8717C76.2222 97.5897 75.8203 97.2327 75.5562 96.8007C75.2922 96.3687 75.1603 95.8287 75.1603 95.1807C75.1603 94.3047 75.3702 93.5697 75.7902 92.9757C76.2102 92.3817 76.7743 91.9317 77.4822 91.6257C78.0194 91.3936 78.6014 91.2495 79.2283 91.1934V92.5167L80.4342 92.3367V91.1891C80.8178 91.2185 81.1868 91.2771 81.5413 91.3647C82.0753 91.4967 82.5762 91.6707 83.0442 91.8867C83.5122 92.1027 83.9323 92.3367 84.3042 92.5887L83.2063 94.6047C83.1223 94.5207 82.9692 94.4067 82.7472 94.2627C82.5252 94.1187 82.2552 93.9807 81.9373 93.8487C81.6193 93.7167 81.2743 93.5997 80.9022 93.4977C80.6882 93.439 80.4722 93.3972 80.2543 93.3723V92.5527L79.3902 92.7507V93.3594C78.9029 93.3992 78.5219 93.5204 78.2473 93.7227C77.9053 93.9747 77.7343 94.3287 77.7343 94.7847C77.7343 95.1327 77.8422 95.4087 78.0582 95.6127C78.2743 95.8167 78.5983 95.9907 79.0303 96.1347C79.1429 96.1723 79.2629 96.2106 79.3902 96.2498V98.812ZM80.2543 99.0781C79.987 98.9932 79.699 98.9045 79.3902 98.812V101.91C79.1344 101.88 78.8794 101.833 78.6253 101.769C78.1513 101.649 77.7193 101.502 77.3293 101.328C76.9392 101.154 76.6063 100.98 76.3303 100.806C76.0543 100.632 75.8623 100.491 75.7543 100.383L74.6562 102.525C75.1483 102.873 75.6852 103.17 76.2672 103.416C76.8492 103.662 77.4613 103.851 78.1033 103.983C78.4793 104.06 78.8543 104.115 79.2283 104.147V106.143H80.4342V104.17C80.9095 104.146 81.3685 104.081 81.8113 103.974C82.3813 103.836 82.8882 103.617 83.3322 103.317C83.7762 103.017 84.1243 102.624 84.3763 102.138C84.6283 101.652 84.7542 101.067 84.7542 100.383C84.7542 99.6027 84.5892 98.9757 84.2592 98.5017C83.9292 98.0277 83.4552 97.6437 82.8372 97.3497C82.2192 97.0557 81.4903 96.8067 80.6502 96.6027C80.5134 96.5672 80.3814 96.5323 80.2543 96.4979V93.3723C80.0933 93.3539 79.9313 93.3447 79.7682 93.3447C79.6358 93.3447 79.5098 93.3496 79.3902 93.3594V96.2498C79.6481 96.3292 79.9361 96.4118 80.2543 96.4979V99.0781ZM80.2543 99.0781C80.3499 99.1084 80.4429 99.1383 80.5332 99.1677C81.0312 99.3297 81.4183 99.5187 81.6943 99.7347C81.9703 99.9507 82.1083 100.251 82.1083 100.635C82.1083 101.055 81.9342 101.379 81.5862 101.607C81.2733 101.812 80.8293 101.925 80.2543 101.945V99.0781ZM80.4342 104.17V102.885H79.2283V104.147C79.4928 104.169 79.7568 104.181 80.0202 104.181C80.1596 104.181 80.2976 104.177 80.4342 104.17ZM80.2543 101.945V102.633L79.3902 102.597V101.91C79.6116 101.936 79.8336 101.949 80.0563 101.949C80.1239 101.949 80.1899 101.948 80.2543 101.945Z" fill="#242E3D"></path><path d="M102.001 72.6604L94.8373 79.8228L87.834 72.8204" stroke="#242E3D" stroke-width="4"></path><path d="M2 37.1314L9.16327 29.969L16.1666 36.9714" stroke="#242E3D" stroke-width="4"></path><defs><linearGradient id="paint0_linear_78_2485" x1="38.4576" y1="68.2219" x2="65.5547" y2="68.2219" gradientUnits="userSpaceOnUse"><stop stop-color="#FFD314"></stop><stop offset="1" stop-color="#E98304"></stop></linearGradient><linearGradient id="paint1_linear_78_2485" x1="13.1331" y1="24.0939" x2="36.3089" y2="24.0939" gradientUnits="userSpaceOnUse"><stop stop-color="#FFD314"></stop><stop offset="1" stop-color="#E98304"></stop></linearGradient><linearGradient id="paint2_linear_78_2485" x1="68.1743" y1="108.821" x2="91.3502" y2="108.821" gradientUnits="userSpaceOnUse"><stop stop-color="#FFD314"></stop><stop offset="1" stop-color="#E98304"></stop></linearGradient></defs></svg> 