<?xml version="1.0" encoding="UTF-8"?> <svg xmlns="http://www.w3.org/2000/svg" width="101" height="76" viewBox="0 0 101 76" fill="none"><path fill-rule="evenodd" clip-rule="evenodd" d="M10.9922 61.9864H85.6573V13.2917H10.9922V61.9864Z" fill="white"></path><path fill-rule="evenodd" clip-rule="evenodd" d="M10.9922 61.9864H85.6573V13.2917H10.9922V61.9864Z" fill="url(#paint0_linear_78_4195)" stroke="#242E3D" stroke-width="4"></path><path fill-rule="evenodd" clip-rule="evenodd" d="M52.2985 73.425H44.3516V61.9861H52.2985V73.425Z" fill="white"></path><path fill-rule="evenodd" clip-rule="evenodd" d="M52.2985 73.425H44.3516V61.9861H52.2985V73.425Z" stroke="#242E3D" stroke-width="4"></path><path d="M37.5078 73.4251H59.1357" stroke="#242E3D" stroke-width="4"></path><path fill-rule="evenodd" clip-rule="evenodd" d="M29.8242 37.6394C29.8242 47.8568 38.1068 56.1394 48.3242 56.1394C58.5407 56.1394 66.8242 47.8568 66.8242 37.6394C66.8242 27.422 58.5407 19.1394 48.3242 19.1394C38.1068 19.1394 29.8242 27.422 29.8242 37.6394Z" fill="white"></path><path fill-rule="evenodd" clip-rule="evenodd" d="M42.051 30.0398C42.0336 28.9642 43.1877 28.2731 44.1276 28.7964L50.656 32.4272L57.1852 36.0589C58.1252 36.5814 58.1458 37.9256 57.2232 38.4786L50.8147 42.317L44.4054 46.1553C43.4828 46.7075 42.3072 46.0544 42.2907 44.9797L42.1708 37.5089L42.051 30.0398Z" fill="white"></path><path fill-rule="evenodd" clip-rule="evenodd" d="M42.051 30.0398C42.0336 28.9642 43.1877 28.2731 44.1276 28.7964L50.656 32.4272L57.1852 36.0589C58.1252 36.5814 58.1458 37.9256 57.2232 38.4786L50.8147 42.317L44.4054 46.1553C43.4828 46.7075 42.3072 46.0544 42.2907 44.9797L42.1708 37.5089L42.051 30.0398Z" stroke="#242E3D" stroke-width="4"></path><path d="M61.1328 2.49341H98.1155V39.0985" stroke="#242E3D" stroke-width="4" stroke-dasharray="4 3"></path><path d="M16 73.4253H0V41.4253" stroke="#242E3D" stroke-width="4" stroke-dasharray="4 3"></path><defs><linearGradient id="paint0_linear_78_4195" x1="9.7851" y1="62.3064" x2="85.4319" y2="62.3064" gradientUnits="userSpaceOnUse"><stop stop-color="#FFD614"></stop><stop offset="1" stop-color="#ED8704"></stop></linearGradient></defs></svg> 