<?xml version="1.0" encoding="UTF-8"?> <svg xmlns="http://www.w3.org/2000/svg" width="98" height="97" viewBox="0 0 98 97" fill="none"><mask id="mask0_78_2903" style="mask-type:alpha" maskUnits="userSpaceOnUse" x="19" y="18" width="23" height="23"><path fill-rule="evenodd" clip-rule="evenodd" d="M19.5762 29.5168C19.5762 35.6778 24.5702 40.6718 30.7322 40.6718C36.8922 40.6718 41.8862 35.6778 41.8862 29.5168C41.8862 23.3558 36.8922 18.3618 30.7322 18.3618C24.5702 18.3618 19.5762 23.3558 19.5762 29.5168Z" fill="white"></path></mask><g mask="url(#mask0_78_2903)"><path fill-rule="evenodd" clip-rule="evenodd" d="M30.7322 40.6718C24.5702 40.6718 19.5762 35.6778 19.5762 29.5168C19.5762 23.3558 24.5702 18.3618 30.7322 18.3618C36.8922 18.3618 41.8862 23.3558 41.8862 29.5168C41.8862 35.6778 36.8922 40.6718 30.7322 40.6718ZM30.7311 34.81C33.6541 34.81 36.0241 32.44 36.0241 29.517C36.0241 26.594 33.6541 24.224 30.7311 24.224C27.8081 24.224 25.4391 26.594 25.4391 29.517C25.4391 32.44 27.8081 34.81 30.7311 34.81Z" fill="url(#paint0_linear_78_2903)"></path></g><mask id="mask1_78_2903" style="mask-type:alpha" maskUnits="userSpaceOnUse" x="16" y="15" width="29" height="29"><path fill-rule="evenodd" clip-rule="evenodd" d="M23.682 17.3907L26.57 22.3497C27.819 21.6227 29.248 21.2357 30.704 21.2317L30.687 15.4927C28.224 15.4997 25.801 16.1557 23.682 17.3907ZM34.847 22.3237C36.107 23.0477 37.161 24.0927 37.894 25.3487L42.85 22.4547C41.612 20.3347 39.833 18.5677 37.704 17.3457L34.847 22.3237ZM16.707 29.5177V29.5407L22.445 29.5177C22.445 28.0667 22.825 26.6397 23.542 25.3937L18.568 22.5307C17.35 24.6477 16.707 27.0627 16.707 29.5177ZM39.017 29.4697V29.5177C39.017 30.9737 38.634 32.4047 37.911 33.6567L42.88 36.5287C44.107 34.4057 44.756 31.9807 44.756 29.5177V29.4697H39.017ZM18.597 36.5537C19.83 38.6757 21.605 40.4457 23.732 41.6727L26.6 36.7007C25.34 35.9747 24.289 34.9277 23.559 33.6697L18.597 36.5537ZM30.741 37.8027L30.745 43.5417C33.209 43.5397 35.633 42.8887 37.755 41.6587L34.877 36.6927C33.627 37.4177 32.196 37.8007 30.741 37.8027Z" fill="white"></path></mask><g mask="url(#mask1_78_2903)"><path fill-rule="evenodd" clip-rule="evenodd" d="M23.682 17.3907L26.57 22.3497C27.819 21.6227 29.248 21.2357 30.704 21.2317L30.687 15.4927C28.224 15.4997 25.801 16.1557 23.682 17.3907ZM34.847 22.3237C36.107 23.0477 37.161 24.0927 37.894 25.3487L42.85 22.4547C41.612 20.3347 39.833 18.5677 37.704 17.3457L34.847 22.3237ZM16.707 29.5177V29.5407L22.445 29.5177C22.445 28.0667 22.825 26.6397 23.542 25.3937L18.568 22.5307C17.35 24.6477 16.707 27.0627 16.707 29.5177ZM39.017 29.4697V29.5177C39.017 30.9737 38.634 32.4047 37.911 33.6567L42.88 36.5287C44.107 34.4057 44.756 31.9807 44.756 29.5177V29.4697H39.017ZM18.597 36.5537C19.83 38.6757 21.605 40.4457 23.732 41.6727L26.6 36.7007C25.34 35.9747 24.289 34.9277 23.559 33.6697L18.597 36.5537ZM30.741 37.8027L30.745 43.5417C33.209 43.5397 35.633 42.8887 37.755 41.6587L34.877 36.6927C33.627 37.4177 32.196 37.8007 30.741 37.8027Z" fill="url(#paint1_linear_78_2903)"></path></g><mask id="mask2_78_2903" style="mask-type:alpha" maskUnits="userSpaceOnUse" x="57" y="55" width="23" height="24"><path fill-rule="evenodd" clip-rule="evenodd" d="M57.127 67.1047C57.127 73.2657 62.121 78.2607 68.282 78.2607C74.443 78.2607 79.437 73.2657 79.437 67.1047C79.437 60.9447 74.443 55.9507 68.282 55.9507C62.121 55.9507 57.127 60.9447 57.127 67.1047Z" fill="white"></path></mask><g mask="url(#mask2_78_2903)"><path fill-rule="evenodd" clip-rule="evenodd" d="M68.282 78.2607C62.121 78.2607 57.127 73.2657 57.127 67.1047C57.127 60.9447 62.121 55.9507 68.282 55.9507C74.443 55.9507 79.437 60.9447 79.437 67.1047C79.437 73.2657 74.443 78.2607 68.282 78.2607ZM68.2818 72.3981C71.2048 72.3981 73.5748 70.0281 73.5748 67.1051C73.5748 64.1821 71.2048 61.8121 68.2818 61.8121C65.3588 61.8121 62.9898 64.1821 62.9898 67.1051C62.9898 70.0281 65.3588 72.3981 68.2818 72.3981Z" fill="url(#paint2_linear_78_2903)"></path></g><mask id="mask3_78_2903" style="mask-type:alpha" maskUnits="userSpaceOnUse" x="54" y="53" width="29" height="29"><path fill-rule="evenodd" clip-rule="evenodd" d="M61.2328 54.9788L64.1208 59.9388C65.3698 59.2108 66.7988 58.8238 68.2548 58.8198L68.2378 53.0808C65.7748 53.0888 63.3528 53.7448 61.2328 54.9788ZM72.3978 59.9128C73.6578 60.6358 74.7118 61.6818 75.4448 62.9358L80.4008 60.0438C79.1628 57.9228 77.3838 56.1568 75.2548 54.9348L72.3978 59.9128ZM54.2578 67.1048V67.1288L59.9968 67.1048C59.9968 65.6538 60.3758 64.2288 61.0928 62.9818L56.1188 60.1198C54.9008 62.2348 54.2578 64.6518 54.2578 67.1048ZM76.5678 67.0588V67.1048C76.5678 68.5618 76.1848 69.9928 75.4618 71.2438L80.4298 74.1168C81.6578 71.9928 82.3068 69.5698 82.3068 67.1048V67.0588H76.5678ZM56.1478 74.1408C57.3808 76.2648 59.1558 78.0348 61.2828 79.2608L64.1498 74.2898C62.8908 73.5638 61.8398 72.5148 61.1108 71.2588L56.1478 74.1408ZM68.2908 75.3908L68.2958 81.1298C70.7598 81.1278 73.1838 80.4768 75.3058 79.2468L72.4278 74.2808C71.1778 75.0058 69.7468 75.3898 68.2908 75.3908Z" fill="white"></path></mask><g mask="url(#mask3_78_2903)"><path fill-rule="evenodd" clip-rule="evenodd" d="M61.2328 54.9788L64.1208 59.9388C65.3698 59.2108 66.7988 58.8238 68.2548 58.8198L68.2378 53.0808C65.7748 53.0888 63.3528 53.7448 61.2328 54.9788ZM72.3978 59.9128C73.6578 60.6358 74.7118 61.6818 75.4448 62.9358L80.4008 60.0438C79.1628 57.9228 77.3838 56.1568 75.2548 54.9348L72.3978 59.9128ZM54.2578 67.1048V67.1288L59.9968 67.1048C59.9968 65.6538 60.3758 64.2288 61.0928 62.9818L56.1188 60.1198C54.9008 62.2348 54.2578 64.6518 54.2578 67.1048ZM76.5678 67.0588V67.1048C76.5678 68.5618 76.1848 69.9928 75.4618 71.2438L80.4298 74.1168C81.6578 71.9928 82.3068 69.5698 82.3068 67.1048V67.0588H76.5678ZM56.1478 74.1408C57.3808 76.2648 59.1558 78.0348 61.2828 79.2608L64.1498 74.2898C62.8908 73.5638 61.8398 72.5148 61.1108 71.2588L56.1478 74.1408ZM68.2908 75.3908L68.2958 81.1298C70.7598 81.1278 73.1838 80.4768 75.3058 79.2468L72.4278 74.2808C71.1778 75.0058 69.7468 75.3898 68.2908 75.3908Z" fill="url(#paint3_linear_78_2903)"></path></g><path d="M72.1348 44.2036L84.5091 56.578C91.9291 63.9979 91.9291 76.0281 84.5091 83.448V83.448C77.0892 90.868 65.059 90.868 57.6391 83.448L45.2647 71.0737L72.1348 44.2036Z" stroke="#242E3D" stroke-width="4" stroke-dasharray="6 4"></path><path d="M26.5742 52.7036L14.1999 40.3292C6.77989 32.9093 6.77989 20.8791 14.1999 13.4592V13.4592C21.6198 6.03923 33.6499 6.03923 41.0699 13.4592L53.4443 25.8336L26.5742 52.7036Z" stroke="#242E3D" stroke-width="4" stroke-dasharray="6 4"></path><path fill-rule="evenodd" clip-rule="evenodd" d="M88.9618 14.8947L77.9198 25.9347C76.2598 27.5947 73.5688 27.5947 71.9078 25.9337C70.2478 24.2737 70.2478 21.5827 71.9078 19.9227L82.9508 8.8827C77.0188 5.5697 69.3888 6.4197 64.3478 11.4597C60.2658 15.5407 58.9368 21.3187 60.3298 26.5197L15.1928 71.6487C12.1578 74.6837 12.1568 79.6047 15.1918 82.6397L15.1928 82.6407C18.2278 85.6757 23.1478 85.6757 26.1828 82.6417L71.3208 37.5117C76.5218 38.9057 82.3008 37.5767 86.3818 33.4967C91.4228 28.4567 92.2738 20.8267 88.9618 14.8947Z" fill="#EEEEEE" stroke="#242E3D" stroke-width="4"></path><defs><linearGradient id="paint0_linear_78_2903" x1="19.5762" y1="40.6721" x2="41.8865" y2="40.6721" gradientUnits="userSpaceOnUse"><stop stop-color="#FFD314"></stop><stop offset="1" stop-color="#E98304"></stop></linearGradient><linearGradient id="paint1_linear_78_2903" x1="16.7064" y1="43.5418" x2="44.7559" y2="43.5418" gradientUnits="userSpaceOnUse"><stop stop-color="#FFD314"></stop><stop offset="1" stop-color="#E98304"></stop></linearGradient><linearGradient id="paint2_linear_78_2903" x1="57.1269" y1="78.2602" x2="79.4371" y2="78.2602" gradientUnits="userSpaceOnUse"><stop stop-color="#FFD314"></stop><stop offset="1" stop-color="#E98304"></stop></linearGradient><linearGradient id="paint3_linear_78_2903" x1="54.2571" y1="81.1302" x2="82.3066" y2="81.1302" gradientUnits="userSpaceOnUse"><stop stop-color="#FFD314"></stop><stop offset="1" stop-color="#E98304"></stop></linearGradient></defs></svg> 