<?xml version="1.0" encoding="UTF-8" standalone="no"?> <svg xmlns:inkscape="http://www.inkscape.org/namespaces/inkscape" xmlns:sodipodi="http://sodipodi.sourceforge.net/DTD/sodipodi-0.dtd" xmlns="http://www.w3.org/2000/svg" xmlns:svg="http://www.w3.org/2000/svg" id="a2ea48b1-b639-4d5e-944b-d808ea25418f" data-name="Layer 1" viewBox="0 0 756.73999 431.64233" version="1.1" sodipodi:docname="InsideSales_logo_stacked.svg" width="756.73999" height="431.64233" inkscape:version="1.2.1 (9c6d41e410, 2022-07-14, custom)"><defs id="defs37"></defs><path d="M 228.22,25.072349 V 191.53235 H 196.9 V 25.072349 Z" fill="#16283a" id="path2"></path><path d="m 343.12,70.602349 q 8.69,10.11 8.68,27.46 v 93.470001 h -30.12 v -89.38 q 0,-10.110001 -3.25,-14.330001 -3.25,-4.22 -9.51,-4.22 a 18,18 0 0 0 -12.05,4.82 q -5.55,4.83 -10.84,14.210001 v 88.9 H 255.92 V 64.092349 h 26.26 l 2.19,16.62 a 52.92,52.92 0 0 1 15.54,-15 36.72,36.72 0 0 1 19.39,-5.18 q 15.15,-0.05 23.82,10.07 z" fill="#16283a" id="path4"></path><path d="m 456.59,75.652349 -11.81,17.15 q -14.22,-10.12 -28.18,-10.12 -8,0 -12.29,3.61 a 12.19,12.19 0 0 0 -4.34,9.88 12.68,12.68 0 0 0 2,7.470001 c 1.36,1.92 3.74,3.82 7.11,5.66 a 97.83,97.83 0 0 0 15.17,6.14 q 18.31,6 27.23,14.94 8.92,8.94 8.91,24.57 0,18.79 -14.09,29.51 -14.09,10.72 -35.54,10.72 a 69.75,69.75 0 0 1 -26,-4.7 61.62,61.62 0 0 1 -20.39,-13.17 l 14.94,-16.62 q 14.92,12 30.59,12.05 9.15,0 14.33,-4.1 5.18,-4.1 5.14,-11.56 a 17.12,17.12 0 0 0 -2,-8.92 q -2.06,-3.36 -7.35,-6.26 a 94.34,94.34 0 0 0 -16.14,-6.26 q -17.83,-6 -25.9,-15.18 -8.07,-9.18 -8.12,-22.660001 a 34.48,34.48 0 0 1 5.51,-19.13 37,37 0 0 1 15.9,-13.37 55.88,55.88 0 0 1 23.85,-4.82 q 23.88,0 41.47,15.17 z" fill="#16283a" id="path6"></path><path d="m 505.61,5.1923492 a 19.23,19.23 0 0 1 0,26.2599998 18.13,18.13 0 0 1 -13.37,5.18 q -8.21,0 -13.37,-5.18 a 19.23,19.23 0 0 1 0,-26.2599998 q 5.18,-5.16999999 13.37,-5.17999999 a 18.13,18.13 0 0 1 13.37,5.17999999 z m 1.56,58.8999998 V 191.53235 H 477.06 V 64.092349 Z" fill="#16283a" id="path8"></path><path d="M 632.92,13.022349 V 191.53235 h -26.74 l -1.69,-15.42 q -12.52,19 -32.52,19 -21.2,0 -32.52,-17.83 -11.32,-17.83 -11.32,-49.38 0,-20 5.78,-35.290001 5.78,-15.29 16.26,-23.73 a 37.53,37.53 0 0 1 24.2,-8.4 q 16.86,0 28.43,13.49 V 9.8923492 Z M 592.69,168.52235 q 5.29,-4 10.12,-11.92 V 96.602349 a 38,38 0 0 0 -9.52,-10.12 19.46,19.46 0 0 0 -11.2,-3.37 q -10.61,0 -16.62,10.72 -6.01,10.720001 -6,33.850001 0,23.85 5.43,34.33 5.43,10.48 15.47,10.48 a 19.93,19.93 0 0 0 12.32,-3.97 z" fill="#16283a" id="path10"></path><path d="m 756.02,137.08235 h -72 q 1.44,19.28 8.19,27.22 6.75,7.94 18.79,7.95 a 39.09,39.09 0 0 0 14.45,-2.65 67.25,67.25 0 0 0 14.46,-8.19 l 12.46,17.11 q -19,16.62 -43.6,16.62 -26.74,0 -41.19,-17.59 -14.45,-17.59 -14.46,-48.9 0,-30.830001 13.85,-49.500001 13.85,-18.67 38.67,-18.67 24.09,0 37.58,16.62 13.49,16.62 13.52,47.700001 0,2.16 -0.72,12.28 z m -28.91,-20.95 q 0,-17.350001 -5.06,-25.900001 -5.06,-8.55 -16.14,-8.55 a 17.46,17.46 0 0 0 -15.54,8.31 q -5.41,8.31 -6.38,27.580001 h 43.12 z" fill="#16283a" id="path12"></path><path d="m 269.53,262.96235 a 67.72,67.72 0 0 1 22,15.42 l -14.93,17.1 a 59.67,59.67 0 0 0 -15.9,-10.36 43.3,43.3 0 0 0 -17.1,-3.37 q -10.12,0 -16.27,5.3 -6.15,5.3 -6.14,14.69 a 20.67,20.67 0 0 0 2.53,10.6 c 1.69,2.89 4.7,5.59 9,8.07 a 119,119 0 0 0 18.79,8.07 q 22.41,8.2 33.37,19.52 10.96,11.32 11,32.52 a 49.69,49.69 0 0 1 -7,26.25 48.17,48.17 0 0 1 -20.11,18.19 q -13.14,6.63 -30.72,6.63 -33,0 -55.16,-22.65 l 15.9,-17.58 a 75.57,75.57 0 0 0 18.19,12 47.39,47.39 0 0 0 19.87,4.1 q 12.28,0 19.39,-6.75 7.11,-6.75 7.13,-18.51 0,-10.59 -6,-16.74 -6,-6.15 -22.89,-11.92 -24.09,-8.43 -34.69,-20 -10.6,-11.57 -10.6,-29.63 a 42.89,42.89 0 0 1 6.75,-23.73 45.64,45.64 0 0 1 18.79,-16.38 60.55,60.55 0 0 1 27,-5.9 q 15.88,0 27.8,5.06 z" fill="#16283a" id="path14"></path><path d="m 402.63,405.93235 a 13.13,13.13 0 0 0 6.26,5.18 l -6.26,20 q -10.36,-1.21 -16.75,-5.3 -6.39,-4.09 -9.51,-12.77 -11.81,18.56 -34.21,18.55 -17.1,0 -27.22,-10.84 -10.12,-10.84 -10.12,-28.43 0,-20.71 13.73,-31.68 13.73,-10.97 39.75,-11 h 12.77 v -7.95 q 0,-12 -4.82,-17.1 -4.82,-5.1 -15.66,-5.06 -12.53,0 -30.83,6.5 l -7,-20 q 21.92,-9.15 42.64,-9.15 45.29,0 45.29,43.12 v 55.89 q 0.01,6.79 1.94,10.04 z m -31.56,-11.92 v -26.5 h -9.64 q -26.51,0 -26.5,22.64 0,9.64 4.1,14.58 4.1,4.94 11.34,4.94 13.23,0 20.7,-15.66 z" fill="#16283a" id="path16"></path><path d="m 432.14,423.40235 q -7.83,-8.19 -7.83,-22.89 v -151 l 30.11,-3.13 v 153.17 q 0,7.71 6.5,7.71 a 18.76,18.76 0 0 0 6,-1 l 6,20.72 q -8,4.57 -19,4.58 -13.96,0.03 -21.78,-8.16 z" fill="#16283a" id="path18"></path><path d="m 580.65,373.53235 h -72 q 1.41,19.27 8.16,27.27 6.75,8 18.79,7.95 a 39.14,39.14 0 0 0 14.46,-2.65 67.2,67.2 0 0 0 14.45,-8.19 l 12.52,17.11 q -19,16.62 -43.6,16.62 -26.73,0 -41.19,-17.59 -14.46,-17.59 -14.45,-48.9 0,-30.84 13.85,-49.5 13.85,-18.66 38.66,-18.67 24.09,0 37.58,16.62 13.49,16.62 13.49,47.65 0,2.16 -0.72,12.28 z m -28.91,-21 q 0,-17.34 -5.06,-25.89 -5.06,-8.55 -16.14,-8.56 a 17.48,17.48 0 0 0 -15.54,8.32 q -5.42,8.31 -6.38,27.58 h 43.12 z" fill="#16283a" id="path20"></path><path d="m 679.42,312.10235 -11.81,17.11 q -14.24,-10.12 -28.18,-10.12 -7.95,0 -12.29,3.61 a 12.18,12.18 0 0 0 -4.34,9.88 12.68,12.68 0 0 0 2.05,7.47 c 1.36,1.92 3.74,3.81 7.11,5.66 a 97.83,97.83 0 0 0 15.17,6.14 q 18.32,6 27.23,14.94 8.91,8.94 8.91,24.57 0,18.78 -14.09,29.51 -14.09,10.73 -35.54,10.72 a 69.75,69.75 0 0 1 -26,-4.7 61.78,61.78 0 0 1 -20.49,-13.09 l 14.94,-16.62 q 14.92,12 30.59,12 9.15,0 14.33,-4.09 5.18,-4.09 5.18,-11.56 a 17.1,17.1 0 0 0 -2,-8.92 q -2.06,-3.36 -7.35,-6.26 a 94.68,94.68 0 0 0 -16.14,-6.26 q -17.84,-6 -25.9,-15.18 -8.06,-9.18 -8.07,-22.64 a 34.54,34.54 0 0 1 5.54,-19.16 36.94,36.94 0 0 1 15.9,-13.37 56,56 0 0 1 23.85,-4.81 q 23.81,0 41.4,15.17 z" fill="#16283a" id="path22"></path><polygon points="108.08,388.38 115.36,399.18 118.7,404.12 118.7,353.15 75.84,353.15 75.84,433.5 81.72,425.26 90.49,413 99.95,399.75 " fill="#16283a" id="polygon24" transform="translate(-71.63,-169.19765)"></polygon><polygon points="171.96,426.47 171.96,270.06 129.09,270.06 129.09,419.52 133.81,426.51 151.51,452.74 167.92,431.66 " fill="#16283a" id="polygon26" transform="translate(-71.63,-169.19765)"></polygon><polygon points="225.18,380.72 225.22,380.75 225.22,380.67 " id="polygon28" transform="translate(-71.63,-169.19765)"></polygon><polygon points="225.22,323.6 182.35,323.6 182.35,413.11 183.98,411.02 199.39,391.22 225.22,358.04 " fill="#16283a" id="polygon30" transform="translate(-71.63,-169.19765)"></polygon><polygon points="198.61,414.75 183.21,434.56 182.35,435.65 171.96,449.01 167.15,455.19 150.74,476.27 133.03,450.04 129.09,444.2 118.7,428.79 114.59,422.7 107.31,411.91 99.18,423.29 89.72,436.53 83.02,445.89 80.95,448.8 75.84,455.95 71.63,461.83 75.84,464.84 82.94,469.92 106.98,436.28 114.59,447.56 116.26,450.04 118.7,453.65 129.09,469.05 134.06,476.41 149.94,499.94 168.25,476.41 171.96,471.64 193.48,443.98 199.28,436.53 225.22,403.21 225.22,383.51 225.22,380.75 225.18,380.72 225.13,380.68 " fill="#ffdd00" id="polygon32" transform="translate(-71.63,-169.19765)"></polygon></svg> 